<svg xmlns="http://www.w3.org/2000/svg" xmlns:xlink="http://www.w3.org/1999/xlink" fill="none" version="1.1" width="500" height="500" viewBox="0 0 500 500"><g style="mix-blend-mode:passthrough"><rect x="0" y="0" width="500.0000305175781" height="500" rx="70" fill="#142D7B" fill-opacity="1"/><g style="mix-blend-mode:passthrough"><path d="M64.3906,500L229.391,500L229.391,466.40599999999995L185,466.40599999999995L185,313.203L243.188,313.203L314,443.672C334.391,481.40599999999995,354.203,500,406.391,500L455.594,500L455.594,466.40599999999995L451.391,466.40599999999995C423.203,466.40599999999995,405.203,455.03099999999995,389,426.90599999999995L314.594,299.406C372.203,288.016,408.203,253.125,408.203,194.70299999999997C408.203,120.625,364.391,81,281,81L64.3906,81L64.3906,114.60900000000001L108.7969,114.60900000000001L108.7969,466.40599999999995L64.3906,466.40599999999995L64.3906,500ZM185,118.203L263,118.203C305,118.203,329,142.906,329,182.04700000000003L329,212.17200000000003C329,251.312,305,276,263,276L185,276L185,118.203Z" fill="#FFFFFF" fill-opacity="1"/></g></g></svg>