<svg xmlns="http://www.w3.org/2000/svg" xmlns:xlink="http://www.w3.org/1999/xlink" fill="none" version="1.1" width="164"
    height="37" viewBox="0 0 164 37">
    <defs>
        <clipPath id="master_svg0_46_1538">
            <rect x="0" y="0" width="164" height="37" rx="0" />
        </clipPath>
        <clipPath id="master_svg1_46_0619">
            <rect x="0" y="-4" width="44" height="44" rx="0" />
        </clipPath>
    </defs>
    <g style="mix-blend-mode:passthrough" clip-path="url(#master_svg0_46_1538)">
        <g clip-path="url(#master_svg1_46_0619)">
            <g>
                <g>
                    <g>
                        <g style="opacity:0.6000000238418579;">
                            <path
                                d="M12.724317831665038,11.340546702575683C11.41620983166504,9.081086702575684,12.24864283166504,6.227036702575684,14.38918183166504,4.9189247025756835C16.64864183166504,3.7297357025756837,19.50269183166504,4.443249302575683,20.81080183166504,6.702706702575684L31.15671183166504,24.778396702575684C32.46481183166504,26.918896702575683,31.75131183166504,29.772996702575682,29.49191183166504,31.081096702575685C27.35131183166504,32.38919670257569,24.497311831665037,31.556796702575685,23.18921183166504,29.416196702575682L12.724317831665038,11.340546702575683Z"
                                fill="#3662EC" fill-opacity="0.5" />
                        </g>
                    </g>
                    <g>
                        <g>
                            <path
                                d="M12.724333535385131,6.345957175292969C14.032433535385131,4.086494775292969,16.886533535385134,3.372981175292969,19.027033535385133,4.681089175292969C21.286533535385132,5.870277175292969,22.000033535385132,8.72433717529297,20.810833535385132,10.983797175292969L10.345943535385132,29.05946717529297C9.037843535385132,31.19996717529297,6.183783535385132,32.032467175292965,4.043243535385132,30.72436717529297C1.7837860353851318,29.41626717529297,1.070272535385132,26.56216717529297,2.2594615353851317,24.421667175292967L12.724333535385131,6.345957175292969Z"
                                fill="#3662EC" fill-opacity="1" />
                        </g>
                    </g>
                    <g>
                        <g>
                            <path
                                d="M33.65409277954102,7.059469588623047C34.96219277954101,4.800012188623047,37.81619277954101,4.086498588623047,39.95679277954102,5.275687588623047C42.21619277954102,6.583799588623047,43.048692779541014,9.437849588623047,41.74059277954102,11.697309588623046L31.275682779541015,29.772959588623046C29.967572779541015,31.91355958862305,27.113522779541015,32.74595958862305,24.972982779541017,31.43785958862305C22.713521479541015,30.129759588623045,22.000007779541015,27.275659588623046,23.308115779541016,25.135159588623047L33.65409277954102,7.059469588623047Z"
                                fill="#3662EC" fill-opacity="1" />
                        </g>
                    </g>
                </g>
            </g>
        </g>
        <g style="mix-blend-mode:passthrough">
            <path
                d="M53.3203,22.293L51.30469,22.293L51.30469,31L44.92969,31L44.92969,6.015599999999999L54.3281,6.015599999999999Q59.2969,6.015599999999999,61.6289,7.925800000000001Q63.9727,9.835899999999999,63.9727,14.148399999999999Q63.9727,17.207,62.8711,19.0117Q61.7812,20.8164,59.4727,21.6016L66.3164,31L58.793,31L53.3203,22.293ZM53.25,17.6406Q55.7344,17.6406,56.707,16.9023Q57.6797,16.1641,57.6797,14.148399999999999Q57.6797,12.8594,57.2578,12.1797Q56.8477,11.488299999999999,55.8867,11.218800000000002Q54.9375,10.949200000000001,53.25,10.949200000000001L51.30469,10.949200000000001L51.30469,17.6406L53.25,17.6406ZM84.2625,22.7969L72.0281,23.5117Q72.23910000000001,25.1289,73.4461,25.902299999999997Q74.6531,26.675800000000002,76.8563,26.675800000000002Q78.64920000000001,26.675800000000002,80.5945,26.2539Q82.5398,25.820300000000003,83.4773,25.3164L83.4773,29.886699999999998Q82.5398,30.4961,80.3719,30.929699999999997Q78.2156,31.363300000000002,75.6609,31.363300000000002Q72.46170000000001,31.363300000000002,70.3523,30.460900000000002Q68.243,29.5586,67.1063,27.3438Q65.9813,25.1289,65.9813,21.2852Q65.9813,17.3945,67.1063,15.2031Q68.243,13,70.39920000000001,12.0977Q72.5672,11.1953,75.9188,11.1953Q79.2234,11.1953,81.11019999999999,12.191400000000002Q83.0086,13.175799999999999,83.7469,15.074200000000001Q84.48519999999999,16.9609,84.48519999999999,19.8789Q84.48519999999999,21.4961,84.2625,22.7969ZM79.0125,18.8359Q79.0125,17.3242,78.3563,16.5156Q77.71170000000001,15.6953,75.9188,15.6953Q73.868,15.6953,73.0008,16.5156Q72.1336,17.3242,72.0281,19.375L79.0125,18.8359ZM85.1813,21.2852Q85.1813,17.3945,86.3063,15.2031Q87.443,13,89.5523,12.0977Q91.6617,11.1953,94.9313,11.1953Q98.1773,11.1953,100.2984,12.0977Q102.4195,13,103.53280000000001,15.2031Q104.65780000000001,17.3945,104.65780000000001,21.2852Q104.65780000000001,25.164099999999998,103.53280000000001,27.367199999999997Q102.4195,29.5586,100.2984,30.460900000000002Q98.1773,31.363300000000002,94.9313,31.363300000000002Q91.6617,31.363300000000002,89.5523,30.460900000000002Q87.443,29.5586,86.3063,27.367199999999997Q85.1813,25.164099999999998,85.1813,21.2852ZM94.9313,26.863300000000002Q96.3375,26.863300000000002,97.0875,26.3594Q97.8492,25.8555,98.1656,24.6719Q98.4938,23.4766,98.4938,21.2852Q98.4938,19.082,98.1656,17.875Q97.8492,16.668,97.0758,16.1523Q96.3023,15.625,94.9313,15.625Q93.5367,15.625,92.775,16.1523Q92.0133,16.668,91.68520000000001,17.875Q91.3688,19.082,91.3688,21.2852Q91.3688,23.4766,91.68520000000001,24.6719Q92.0133,25.8555,92.7867,26.3594Q93.5719,26.863300000000002,94.9313,26.863300000000002ZM125.3578,17.793L125.3578,31L119.2758,31L119.2758,19.2695Q119.2758,17.9688,119.018,17.2891Q118.7719,16.5977,118.1391,16.3281Q117.5063,16.0586,116.3227,16.0586Q114.8813,16.0586,114.0492,16.5625Q113.2172,17.0664,112.9008,18.1445L112.9008,31L106.8539,31L106.8539,11.558599999999998L112.9008,11.558599999999998L112.9008,13.7148Q113.6508,12.531199999999998,115.1977,11.863299999999999Q116.7563,11.1953,118.9477,11.1953Q122.4047,11.1953,123.8813,12.7656Q125.3578,14.335899999999999,125.3578,17.793ZM140.0695,16.5977L139.53050000000002,16.5977Q137.55,16.5977,136.1086,17.5Q134.66719999999998,18.4023,134.3859,20.418L134.3859,31L128.3039,31L128.3039,11.558599999999998L134.3859,11.558599999999998L134.3859,14.9805Q135.1828,12.824200000000001,136.53050000000002,12.0156Q137.87810000000002,11.1953,139.8234,11.1953L140.2219,11.1953L140.0695,16.5977ZM158.93,17.6758L158.93,31L153.457,31L152.953,28.9844Q152.332,29.992199999999997,150.832,30.6836Q149.344,31.363300000000002,147.047,31.363300000000002Q143.801,31.363300000000002,142.09,29.886699999999998Q140.3906,28.410200000000003,140.3906,25.386699999999998Q140.3906,22.0703,142.348,20.6758Q144.305,19.2695,148.488,19.2695L152.88299999999998,19.2695L152.88299999999998,18.8711Q152.836,17.8281,152.49599999999998,17.2891Q152.156,16.7383,151.348,16.5273Q150.539,16.3164,148.99200000000002,16.3164Q146.75400000000002,16.3164,144.926,16.668L144.926,11.558599999999998Q147.152,11.2305,149.777,11.2305Q154.711,11.2305,156.82,12.789100000000001Q158.93,14.335899999999999,158.93,17.6758ZM148.805,26.793Q150.281,26.793,151.35899999999998,26.324199999999998Q152.449,25.8555,152.88299999999998,25.0586L152.88299999999998,23.2188L149.531,23.2188Q147.727,23.2188,147.023,23.6172Q146.32,24.0156,146.32,25.1289Q146.32,26.0312,146.918,26.418Q147.51600000000002,26.793,148.805,26.793Z"
                fill="#3D3D3D" fill-opacity="1" />
        </g>
    </g>
</svg>