<svg xmlns="http://www.w3.org/2000/svg" xmlns:xlink="http://www.w3.org/1999/xlink" fill="none" version="1.1" width="176" height="63" viewBox="0 0 176 63"><g style="mix-blend-mode:passthrough"><path d="M29.8018,48L22.4629,36.6182L19.0791,36.6182L19.0791,48L12.2529,48L12.2529,16.7695L22.873,16.7695Q26.0225,16.7695,28.293,17.3115Q30.5635,17.8535,32.043,19.0254Q33.5371,20.1973,34.2256,22.0869Q34.9287,23.9766,34.9287,26.6719Q34.9287,30.583,33.5078,32.7949Q32.0869,34.9922,29.0693,35.9004L37.8584,48L29.8018,48ZM21.833,31.5352Q23.5469,31.5352,24.7627,31.3301Q25.9785,31.125,26.7109,30.583Q27.458,30.041,27.7949,29.1035Q28.1318,28.1514,28.1318,26.6719Q28.1318,25.2803,27.7949,24.4014Q27.458,23.5225,26.7109,23.0244Q25.9785,22.5264,24.7627,22.3506Q23.5469,22.1748,21.833,22.1748L19.0791,22.1748L19.0791,31.5352L21.833,31.5352ZM62.2773,33.9082Q62.2773,34.9482,62.2041,35.8711Q62.1455,36.7939,62.0576,37.292L46.3984,38.2734Q46.5742,40.8955,48.1416,42.1113Q49.7236,43.3271,52.9609,43.3271Q54.0889,43.3271,55.2607,43.166Q56.4326,43.0049,57.502,42.7852Q58.5859,42.5508,59.5088,42.2432Q60.4316,41.9209,61.0176,41.6133L61.0176,46.7402Q60.4756,47.0479,59.5527,47.3701Q58.6299,47.6777,57.4141,47.9121Q56.1982,48.1318,54.7334,48.293Q53.2832,48.4541,51.7012,48.4541Q48.918,48.4541,46.7061,47.8682Q44.5088,47.2822,43,45.8467Q41.4912,44.3965,40.6709,41.9648Q39.8652,39.5332,39.8652,35.8564Q39.8652,32.165,40.6709,29.7334Q41.4912,27.3018,43.0146,25.8662Q44.5527,24.416,46.7939,23.8301Q49.0498,23.2441,51.877,23.2441Q55.041,23.2441,57.0625,24.0352Q59.084,24.8262,60.2559,26.2471Q61.4277,27.6533,61.8525,29.6162Q62.2773,31.5791,62.2773,33.9082ZM56.3447,32.9707Q56.3447,31.9746,56.1836,31.1104Q56.0225,30.2314,55.5537,29.5723Q55.085,28.9131,54.2061,28.5322Q53.3271,28.1514,51.877,28.1514Q50.3535,28.1514,49.3428,28.4883Q48.332,28.8252,47.7021,29.499Q47.0723,30.1729,46.75,31.2422Q46.4424,32.2969,46.3984,33.7324L56.3447,32.9707ZM78.0391,48.4541Q75.2119,48.4541,72.9854,47.8682Q70.7588,47.2822,69.25,45.8467Q67.7412,44.3965,66.9209,41.9648Q66.1152,39.5332,66.1152,35.8564Q66.1152,32.165,66.9209,29.7334Q67.7412,27.3018,69.25,25.8662Q70.7588,24.416,72.9854,23.8301Q75.2119,23.2441,78.0391,23.2441Q80.8809,23.2441,83.0781,23.8301Q85.29,24.416,86.7988,25.8662Q88.3076,27.3018,89.1133,29.7334Q89.9189,32.165,89.9189,35.8564Q89.9189,39.5332,89.1133,41.9648Q88.3076,44.3965,86.7988,45.8467Q85.29,47.2822,83.0781,47.8682Q80.8809,48.4541,78.0391,48.4541ZM78.0391,43.5029Q79.5332,43.5029,80.5439,43.1514Q81.5547,42.7852,82.1553,41.9062Q82.7705,41.0273,83.0195,39.5479Q83.2686,38.0537,83.2686,35.8564Q83.2686,33.6445,82.9902,32.165Q82.7266,30.6709,82.1113,29.7773Q81.5107,28.8691,80.5146,28.4883Q79.5332,28.1074,78.0391,28.1074Q76.5596,28.1074,75.5488,28.4883Q74.5381,28.8691,73.9229,29.7773Q73.3223,30.6709,73.0732,32.165Q72.8242,33.6445,72.8242,35.8564Q72.8242,38.0537,73.0879,39.5479Q73.3662,41.0273,73.9668,41.9062Q74.582,42.7852,75.5635,43.1514Q76.5596,43.5029,78.0391,43.5029ZM109.636,23.2441Q111.877,23.2441,113.43,23.7715Q114.982,24.2842,115.92,25.3242Q116.872,26.3496,117.282,27.8584Q117.692,29.3672,117.692,31.3887L117.692,48L111.159,48L111.159,33.1025Q111.159,31.8867,110.983,31.0078Q110.808,30.1289,110.368,29.6016Q109.943,29.0596,109.182,28.8105Q108.42,28.5615,107.204,28.5615Q105.183,28.5615,103.879,29.2793Q102.575,29.9971,102.033,31.8867L102.033,48L95.5,48L95.5,23.6982L102.033,23.6982L102.033,26.6279Q103.015,24.9141,104.992,24.0791Q106.984,23.2441,109.636,23.2441ZM138.654,23.2441L138.479,29.0596L137.834,29.0596Q136.721,29.0596,135.607,29.3086Q134.509,29.543,133.601,30.1289Q132.707,30.7148,132.033,31.7109Q131.359,32.707,131.096,34.1865L131.096,48L124.562,48L124.562,23.6982L131.096,23.6982L131.096,28.0635Q131.638,26.584,132.414,25.6465Q133.205,24.6943,134.099,24.1523Q135.007,23.6104,136.032,23.4346Q137.072,23.2441,138.156,23.2441L138.654,23.2441ZM152.556,23.2881Q155.603,23.2881,157.697,23.8154Q159.792,24.3281,161.066,25.3242Q162.355,26.3057,162.912,27.7705Q163.483,29.2354,163.483,31.1689L163.483,48L157.639,48L157.009,45.1582Q156.232,46.5205,154.255,47.4873Q152.277,48.4541,149.26,48.4541Q145.173,48.4541,143.049,46.6377Q140.939,44.8066,140.939,41.0273Q140.939,36.7939,143.474,35.0947Q146.022,33.3809,150.93,33.3809L156.965,33.3809L156.965,32.751Q156.965,31.667,156.76,30.9053Q156.555,30.1289,155.969,29.6602Q155.383,29.1914,154.387,28.9717Q153.405,28.7373,151.779,28.7373Q150.476,28.7373,149.172,28.8545Q147.868,28.9717,146.608,29.1914L146.608,23.6543Q148,23.4785,149.611,23.3906Q151.237,23.2881,152.556,23.2881ZM150.93,43.459Q153.186,43.459,154.753,42.668Q156.335,41.877,156.965,40.6172L156.965,37.79L151.926,37.79Q149.494,37.79,148.425,38.376Q147.37,38.9619,147.37,40.793Q147.37,42.2432,148.205,42.8584Q149.04,43.459,150.93,43.459Z" fill="#3D3D3D" fill-opacity="1"/></g></svg>